PathFileType	4	(x/y/z)	A01_SLOW_T0029.trc
DataRate	CameraRate	NumFrames	NumMarkers	Units	OrigDataRate	OrigDataStartFrame	OrigNumFrames
240	240	4	48	mm	240	134	357
Frame#	Time	TOP_HEAD			R_AC			L_AC			R_ASIS			L_ASIS			R_PSIS			L_PSIS			SACRAL			L_IC			R_IC			L_GT			R_GT			R_LAT_KNEE			R_MED_KNEE			L_MED_KNEE			L_LAT_KNEE			R_TOE			L_TOE			R_1ST_MET			L_1ST_MET			L_5TH_MET			R_5TH_MET			R_LAT_ANK			R_MED_ANK			L_MED_ANK			L_LAT_ANK			L_HEEL_SUP			R_HEEL_SUP			L_HEEL_LAT			R_HEEL_LAT			L_HEEL_MED			R_HEEL_MED			R_LL_PROX_POST			R_LL_PROX_ANT			R_LL_DIST_ANT			R_LL_DIST_POST			R_THIGH_PROX_POST			R_THIGH_PROX_ANT			R_THIGH_DIST_ANT			R_THIGH_DIST_POST			L_PROS_PROX_ANT			L_PROS_PROX_POST			L_PROS_DIST_POST			L_PROS_DIST_ANT			L_THIGH_PROX_ANT			L_THIGH_PROX_POST			L_THIGH_DIST_POST			L_THIGH_DIST_ANT			
		X1	Y1	Z1	X2	Y2	Z2	X3	Y3	Z3	X4	Y4	Z4	X5	Y5	Z5	X6	Y6	Z6	X7	Y7	Z7	X8	Y8	Z8	X9	Y9	Z9	X10	Y10	Z10	X11	Y11	Z11	X12	Y12	Z12	X13	Y13	Z13	X14	Y14	Z14	X15	Y15	Z15	X16	Y16	Z16	X17	Y17	Z17	X18	Y18	Z18	X19	Y19	Z19	X20	Y20	Z20	X21	Y21	Z21	X22	Y22	Z22	X23	Y23	Z23	X24	Y24	Z24	X25	Y25	Z25	X26	Y26	Z26	X27	Y27	Z27	X28	Y28	Z28	X29	Y29	Z29	X30	Y30	Z30	X31	Y31	Z31	X32	Y32	Z32	X33	Y33	Z33	X34	Y34	Z34	X35	Y35	Z35	X36	Y36	Z36	X37	Y37	Z37	X38	Y38	Z38	X39	Y39	Z39	X40	Y40	Z40	X41	Y41	Z41	X42	Y42	Z42	X43	Y43	Z43	X44	Y44	Z44	X45	Y45	Z45	X46	Y46	Z46	X47	Y47	Z47	X48	Y48	Z48	

134	0.55572	-104.44	1760.6	255.81	-349.74	1569	506.12	-342.76	1544	45.803	-343.47	1104.6	506.14	-318.28	1030.5	157.83	-550.78	1080.3	374.58	-538.35	1086	242.38	-559.45	1052.6	307.45	-342.84	1139.6	110.86	-376.88	1202.6	507.76	-384.09	949.15	120.36	-390.04	990.55	551.37	-261.43	601.68	519.33	-211.91	594.86	394.02	-386.55	558.55	357.41	-406.43	563.38	200.77	-140.79	88.301	475.29	-328.09	79.1	277.19	-215.88	72.792	416.66	-409.78	56.7	332.06	-439.35	47.67	205.42	-263.83	69.961	542.16	-367.13	144.73	500.59	-348.79	149.6	401.24	-521.98	139.13	313.26	-556.31	133.66	245.27	-649.47	90.658	287.5	-461.08	117.9	427.92	-641.02	60.923	256.36	-461.38	94.421	463.94	-631.24	60.037	320.28	-448.86	90.407	404.44	-384.91	449.87	506.68	-324.13	429.25	541.5	-333.54	354.71	528.92	-383.61	366.6	505.84	-374.04	840.38	540.4	-315.86	881.83	545.28	-282.06	797.08	543.83	-337.13	757.94	536.33	-379.22	473.23	216.87	-433.05	484.62	205.56	-452.64	425.79	216.13	-399.13	421.45	225.5	-330	804.07	165.89	-398.95	812.98	146.7	-393.36	738.32	164.03	-329.96	731.24	180.94
135	0.5599	-100	1760.1	256.6	-345.72	1568.6	506.48	-338.2	1544.1	46.158	-339.58	1104.3	506.2	-314.61	1030.2	157.99	-546.94	1080.2	374.9	-534.48	1085.9	242.68	-555.68	1052.5	307.76	-339.05	1139.5	111.04	-373.13	1202.2	508.01	-380.67	948.95	120.51	-386	990.38	551.59	-256.57	601.53	518.85	-207.16	595.3	393.49	-384.86	558.31	357.59	-404.63	563.21	200.93	-125.35	90.543	475.13	-327.97	79.007	277.16	-200.11	73.395	416.54	-409.72	56.663	332.06	-439.3	47.695	205.44	-248	69.723	542.03	-352.82	142.11	500.34	-334.61	147.38	401.03	-521.68	139.34	313.33	-555.95	134	245.29	-649.31	91.007	287.51	-446.1	113.21	427.72	-640.93	61.265	256.36	-446.04	89.811	463.78	-631.18	60.385	320.3	-433.43	85.987	404.36	-377.24	447.07	506.31	-316.02	427.74	541.12	-323.88	353.03	528.56	-374.16	363.87	505.47	-369.87	840.15	540.34	-311.68	881.66	545.32	-277.74	796.97	543.59	-332.74	757.76	536.01	-377.72	472.97	217.01	-431.49	484.55	205.69	-451.3	425.79	216.24	-397.8	421.26	225.62	-327.14	803.7	166.05	-396.07	812.85	146.81	-390.75	738.18	164.13	-327.33	730.85	181.1
136	0.56408	-95.544	1759.6	257.4	-341.68	1568.1	506.84	-333.64	1544.2	46.525	-335.68	1104	506.28	-310.93	1029.8	158.14	-543.09	1080.1	375.23	-530.59	1085.8	243	-551.89	1052.5	308.09	-335.27	1139.3	111.22	-369.35	1201.8	508.26	-377.25	948.74	120.67	-381.95	990.16	551.82	-251.78	601.32	518.37	-202.48	595.7	392.95	-383.16	558.06	357.78	-402.83	563.04	201.1	-110.03	92.944	474.88	-327.85	78.911	277.15	-184.44	74.176	416.36	-409.67	56.626	332.06	-439.25	47.721	205.45	-232.21	69.652	541.85	-338.53	139.64	500.1	-320.47	145.31	400.81	-521.38	139.54	313.4	-555.59	134.33	245.31	-649.16	91.364	287.51	-431.11	108.69	427.56	-640.84	61.614	256.35	-430.67	85.385	463.65	-631.12	60.74	320.31	-418.01	81.756	404.32	-369.55	444.28	505.97	-307.91	426.24	540.74	-314.22	351.39	528.2	-364.71	361.16	505.11	-365.74	839.88	540.26	-307.52	881.44	545.36	-273.46	796.8	543.35	-328.41	757.53	535.68	-376.21	472.71	217.16	-429.93	484.48	205.83	-449.96	425.79	216.34	-396.47	421.07	225.74	-324.26	803.32	166.22	-393.17	812.71	146.92	-388.11	738.02	164.24	-324.7	730.45	181.27
137	0.56826	-91.061	1759	258.2	-337.61	1567.6	507.22	-329.06	1544.2	46.904	-331.74	1103.7	506.37	-307.24	1029.4	158.3	-539.23	1079.9	375.58	-526.7	1085.7	243.33	-548.1	1052.4	308.44	-331.5	1139	111.41	-365.55	1201.5	508.51	-373.82	948.52	120.82	-377.88	989.92	552.05	-247.06	601.06	517.87	-197.86	596.05	392.38	-381.45	557.8	357.97	-401.02	562.85	201.27	-94.85	95.504	474.54	-327.73	78.813	277.13	-168.9	75.137	416.12	-409.61	56.591	332.07	-439.2	47.748	205.47	-216.48	69.748	541.64	-324.27	137.34	499.86	-306.4	143.4	400.6	-521.07	139.75	313.46	-555.22	134.67	245.33	-649.01	91.73	287.51	-416.14	104.36	427.44	-640.75	61.972	256.34	-415.29	81.146	463.55	-631.05	61.104	320.32	-402.61	77.717	404.3	-361.86	441.5	505.66	-299.81	424.76	540.37	-304.58	349.79	527.84	-355.25	358.5	504.76	-361.65	839.58	540.18	-303.39	881.16	545.4	-269.23	796.56	543.11	-324.14	757.26	535.35	-374.69	472.44	217.3	-428.37	484.41	205.96	-448.61	425.78	216.45	-395.13	420.87	225.87	-321.37	802.94	166.38	-390.26	812.57	147.03	-385.46	737.86	164.34	-322.06	730.04	181.44
